<svg height="468pt" viewBox="0 -88 468.34543 468" width="468pt" xmlns="http://www.w3.org/2000/svg"><path d="m399.332031 71.476562c-24.324219-20.601562-49.121093-37.039062-73.703125-48.851562-31.011718-14.898438-61.78125-22.453125-91.457031-22.453125s-60.449219 7.554687-91.457031 22.453125c-24.585938 11.8125-49.382813 28.246094-73.699219 48.851562-41.273437 34.960938-66.609375 69.40625-67.667969 70.855469-1.796875 2.460938-1.796875 5.796875 0 8.257813 1.058594 1.449218 26.398438 35.898437 67.667969 70.859375 24.320313 20.597656 49.117187 37.035156 73.699219 48.847656 31.011718 14.898437 61.78125 22.453125 91.457031 22.453125 29.679687 0 60.449219-7.554688 91.460937-22.453125 24.582032-11.8125 49.378907-28.246094 73.699219-48.847656 41.273438-34.960938 66.609375-69.410157 67.667969-70.859375 1.792969-2.460938 1.792969-5.796875 0-8.257813-1.058594-1.449219-26.394531-35.894531-67.667969-70.855469zm-165.164062 178.898438c-57.386719 0-103.910157-46.519531-103.910157-103.910156 0-57.386719 46.519532-103.910156 103.910157-103.910156 57.386719-.003907 103.910156 46.519531 103.910156 103.90625.003906 57.390624-46.519531 103.914062-103.910156 103.914062zm0 0"/><path d="m324.078125 146.464844c0 49.65625-40.253906 89.910156-89.910156 89.910156-49.660157 0-89.914063-40.253906-89.914063-89.910156s40.253906-89.914063 89.914063-89.914063c49.65625 0 89.910156 40.257813 89.910156 89.914063zm0 0"/></svg>